<?xml version="1.0" encoding="UTF-8" standalone="no"?>
<!-- Created with Inkscape (http://www.inkscape.org/) -->

<svg
   width="14.5cm"
   height="3.51cm"
   viewBox="0 0 265.15991 64.186987"
   version="1.1"
   id="svg5"
   inkscape:version="1.2.2 (b0a8486, 2022-12-01)"
   sodipodi:docname="spider_sticker.svg"
   inkscape:export-filename="spider_sticker.pdf"
   inkscape:export-xdpi="96"
   inkscape:export-ydpi="96"
   xmlns:inkscape="http://www.inkscape.org/namespaces/inkscape"
   xmlns:sodipodi="http://sodipodi.sourceforge.net/DTD/sodipodi-0.dtd"
   xmlns="http://www.w3.org/2000/svg"
   xmlns:svg="http://www.w3.org/2000/svg">
  <sodipodi:namedview
     id="namedview7"
     pagecolor="#ffffff"
     bordercolor="#666666"
     borderopacity="1.0"
     inkscape:showpageshadow="2"
     inkscape:pageopacity="0"
     inkscape:pagecheckerboard="0"
     inkscape:deskcolor="#d1d1d1"
     inkscape:document-units="mm"
     showgrid="false"
     inkscape:zoom="2"
     inkscape:cx="325.5"
     inkscape:cy="135"
     inkscape:window-width="2145"
     inkscape:window-height="1322"
     inkscape:window-x="1291"
     inkscape:window-y="424"
     inkscape:window-maximized="0"
     inkscape:current-layer="layer1">
    <inkscape:grid
       type="xygrid"
       id="grid396"
       originx="-48.733218"
       originy="-98.411748" />
  </sodipodi:namedview>
  <defs
     id="defs2" />
  <g
     inkscape:label="Layer 1"
     inkscape:groupmode="layer"
     id="layer1"
     transform="translate(-27.355774,-54.495799)">
    <rect
       style="fill:#ffff00;fill-opacity:1;stroke:none;stroke-width:0.400922"
       id="rect14886"
       width="265.15991"
       height="64.186981"
       x="27.355772"
       y="54.4958" />
    <text
       xml:space="preserve"
       style="font-size:10.5833px;line-height:1.25;font-family:OCRABold;-inkscape-font-specification:OCRABold;stroke-width:0.264583"
       x="22.800579"
       y="51.224617"
       id="text400"><tspan
         sodipodi:role="line"
         id="tspan398"
         style="stroke-width:0.264583"
         x="22.800579"
         y="51.224617" /></text>
    <path
       id="path482-1"
       style="font-size:10.5833px;line-height:1.25;font-family:OCRABold;-inkscape-font-specification:OCRABold;stroke-width:1.48259"
       d="m 80.498108,61.932471 v 1.578153 43.174806 c 0,0.89767 0.188261,1.69399 0.56466,2.38895 0.376428,0.68531 0.907319,1.21619 1.59264,1.59264 0.69496,0.38608 1.491283,0.57914 2.388939,0.57914 1.360973,0 2.456522,-0.41991 3.286619,-1.25963 0.839746,-0.83976 1.259621,-1.94013 1.259621,-3.3011 V 91.152927 h 11.394563 c 2.04628,0 3.73545,-0.202677 5.06747,-0.608094 0.75287,-0.231652 1.46715,-0.579153 2.1428,-1.042457 0.67567,-0.472914 1.31755,-1.052095 1.92564,-1.737412 0.56949,-0.637044 1.05214,-1.288581 1.44786,-1.954595 0.3958,-0.666009 0.6853,-1.341672 0.86871,-2.026984 0.34745,-1.245149 0.52123,-2.79918 0.52123,-4.662071 v -5.403371 c 0,-1.998013 -0.19306,-3.634101 -0.57913,-4.908194 -0.1158,-0.366818 -0.26062,-0.723935 -0.43432,-1.071413 -0.16414,-0.357111 -0.36198,-0.699774 -0.59363,-1.027974 -0.23164,-0.337843 -0.48744,-0.666028 -0.76735,-0.984526 -0.27024,-0.318576 -0.57431,-0.632245 -0.91215,-0.941109 -1.18723,-1.119664 -2.40343,-1.882184 -3.64857,-2.287595 -0.40545,-0.12546 -0.83977,-0.231652 -1.30307,-0.318527 -0.45365,-0.08692 -0.92662,-0.149582 -1.41889,-0.188262 -0.48263,-0.03892 -0.99421,-0.05795 -1.53471,-0.05795 H 82.076308 Z m 47.243262,0 c -1.2548,0 -2.31173,0.376428 -3.17079,1.129317 -0.91696,0.801142 -1.37544,1.940122 -1.37544,3.416923 0,0.675658 0.11099,1.312722 0.33303,1.911163 0.22199,0.588786 0.56949,1.090708 1.04245,1.505754 0.42472,0.376429 0.90731,0.661171 1.44785,0.854234 0.55015,0.183408 1.12449,0.275041 1.72293,0.275041 h 7.12342 v 31.099757 h -7.12342 c -1.25479,0 -2.31173,0.38124 -3.17078,1.14381 -0.19306,0.16404 -0.36681,0.35236 -0.52125,0.56466 -0.15442,0.20268 -0.28479,0.41506 -0.39088,0.63705 -0.1062,0.22199 -0.19788,0.4585 -0.27509,0.70945 -0.0674,0.25092 -0.11566,0.50191 -0.14478,0.75287 -0.0289,0.24131 -0.0437,0.49226 -0.0437,0.75289 0,0.67565 0.111,1.31271 0.33304,1.91115 0.222,0.5888 0.5695,1.09071 1.04245,1.50577 0.42473,0.37643 0.90732,0.66118 1.44785,0.85422 0.55016,0.19307 1.1245,0.28961 1.72294,0.28961 h 23.35379 c 0.59843,0 1.16792,-0.0966 1.70845,-0.28961 0.54051,-0.1834 1.02797,-0.4633 1.46232,-0.83975 0.24131,-0.21238 0.45365,-0.44884 0.63706,-0.70944 0.18341,-0.27024 0.32818,-0.55504 0.43433,-0.85423 0.10619,-0.29925 0.18342,-0.60329 0.23166,-0.91214 0.0578,-0.30887 0.0868,-0.6274 0.0868,-0.95558 0,-1.48645 -0.46329,-2.63026 -1.38993,-3.43141 -0.85904,-0.75288 -1.91599,-1.12932 -3.17078,-1.12932 h -7.13787 V 71.024903 h 7.13789 c 0.59845,0 1.16793,-0.09173 1.70846,-0.275041 0.54052,-0.183409 1.02798,-0.463304 1.46232,-0.839756 0.47292,-0.41506 0.82045,-0.916968 1.04246,-1.505755 0.23166,-0.598445 0.34746,-1.240329 0.34746,-1.92564 0,-1.486453 -0.46331,-2.630258 -1.38994,-3.431396 -0.85905,-0.743231 -1.91599,-1.114844 -3.17078,-1.114844 z m 43.16034,0 c -1.37062,0 -2.51926,0.352306 -3.44588,1.056924 -0.34745,0.270236 -0.64191,0.598455 -0.88319,0.984541 -0.24131,0.376428 -0.41507,0.777021 -0.52124,1.201712 -0.106,0.41506 -0.15924,0.849398 -0.15924,1.303063 -0.023,4.529394 0.037,-0.414196 -0.003,4.54624 v 31.099759 c -0.006,1.76065 -0.004,2.72006 0.003,4.56072 0,0.67566 0.111,1.31272 0.33303,1.91116 0.22201,0.58879 0.56946,1.09071 1.04246,1.50577 0.42472,0.37638 0.90734,0.66117 1.44784,0.85423 0.55022,0.19306 1.1245,0.2896 1.72295,0.2896 h 9.84537 c 2.6254,0 4.77789,-0.48264 6.45739,-1.44786 1.70846,-0.97488 3.15148,-2.64474 4.32906,-5.00955 l 5.38599,-10.786461 c 1.26445,-2.519237 1.89668,-4.93234 1.89668,-7.239237 0,-0.72392 -0.0388,-1.404417 -0.1158,-2.041461 -0.0772,-0.63705 -0.19307,-1.240329 -0.34749,-1.80981 -0.15445,-0.550208 -0.35713,-1.129323 -0.6081,-1.737422 -0.24131,-0.617747 -0.5357,-1.283756 -0.8832,-1.998028 L 191.18607,68.73737 c -0.3668,-0.733578 -0.7577,-1.409245 -1.17276,-2.026993 -0.40544,-0.627391 -0.83491,-1.192077 -1.28858,-1.693984 -0.31852,-0.347454 -0.66116,-0.666043 -1.02796,-0.955576 -0.35711,-0.299259 -0.7384,-0.564666 -1.1438,-0.796318 -0.39571,-0.231651 -0.81083,-0.434329 -1.24516,-0.608094 -0.6467,-0.250968 -1.3465,-0.434329 -2.09937,-0.550212 -0.74323,-0.115802 -1.54438,-0.173799 -2.40344,-0.173799 z m 37.68746,0 v 1.578153 46.142896 1.59264 h 1.57816 26.32186 c 0.59844,0 1.16793,-0.0966 1.70846,-0.28961 0.54052,-0.18341 1.02798,-0.4633 1.46231,-0.83975 0.24132,-0.21238 0.45365,-0.44884 0.63707,-0.70945 0.18341,-0.27023 0.32818,-0.55502 0.43433,-0.85422 0.10619,-0.29926 0.18342,-0.60328 0.23166,-0.91214 0.0578,-0.30887 0.0868,-0.6274 0.0868,-0.95559 0,-1.48645 -0.4633,-2.63026 -1.38992,-3.4314 -0.85906,-0.75287 -1.91599,-1.12932 -3.1708,-1.12932 H 217.68161 V 91.121049 h 7.13789 c 0.58879,0 1.15346,-0.09173 1.69398,-0.275089 0.55022,-0.183408 1.03764,-0.463302 1.46233,-0.839755 0.31857,-0.279894 0.58398,-0.608094 0.79633,-0.984532 0.21238,-0.376428 0.36196,-0.762538 0.44884,-1.158278 0.0868,-0.405449 0.13026,-0.830107 0.13026,-1.274103 0,-1.486458 -0.4585,-2.630268 -1.37545,-3.4314 -0.85905,-0.752885 -1.91116,-1.129322 -3.15631,-1.129322 h -7.13789 V 71.024928 h 18.80754 c 0.59844,0 1.16793,-0.09173 1.70846,-0.275043 0.54052,-0.183409 1.02798,-0.463303 1.46233,-0.839755 0.47295,-0.41506 0.82044,-0.916972 1.04245,-1.50576 0.23165,-0.59844 0.3475,-1.240324 0.3475,-1.925645 0,-1.486443 -0.4633,-2.630249 -1.38993,-3.43139 -0.85905,-0.743227 -1.91598,-1.11485 -3.17079,-1.11485 h -26.32186 z m 42.69702,0 v 1.578153 43.174806 c 0,0.89767 0.18826,1.69398 0.56466,2.38895 0.37643,0.68531 0.90733,1.21619 1.59263,1.59264 0.69497,0.38608 1.49129,0.57914 2.38896,0.57914 1.36098,0 2.45651,-0.41991 3.28662,-1.25963 0.83973,-0.83976 1.25962,-1.94013 1.25962,-3.3011 V 87.689674 l 14.84043,21.196486 c 0.48263,0.71427 1.05693,1.28376 1.72294,1.70846 0.66601,0.43432 1.39476,0.65154 2.18625,0.65154 1.24515,0 2.31174,-0.3957 3.19975,-1.18725 0.29925,-0.27022 0.55503,-0.57433 0.76735,-0.91214 0.21239,-0.34745 0.37162,-0.71427 0.47781,-1.10037 0.11585,-0.38608 0.1738,-0.78183 0.1738,-1.18722 0,-0.63704 -0.14958,-1.26446 -0.44884,-1.88221 -0.28961,-0.62739 -0.73358,-1.35133 -1.33201,-2.17177 L 270.36888,86.198391 h 2.41789 c 0.91698,0 1.81464,-0.09173 2.693,-0.275089 0.87836,-0.18341 1.72777,-0.458546 2.54821,-0.825274 1.70846,-0.772176 3.08391,-1.911166 4.12637,-3.416922 0.53088,-0.772181 0.92663,-1.616766 1.18723,-2.533734 0.27024,-0.926616 0.40545,-1.906333 0.40545,-2.939127 v -4.097419 c 0,-0.984531 -0.13511,-1.92564 -0.40545,-2.823301 -0.27023,-0.907315 -0.67084,-1.756724 -1.20172,-2.548217 -0.52123,-0.762524 -1.12931,-1.44302 -1.82428,-2.041462 -0.68531,-0.608093 -1.44301,-1.119673 -2.27312,-1.534714 -0.55021,-0.270237 -1.11485,-0.497093 -1.69398,-0.680487 -0.56949,-0.183409 -1.15345,-0.318575 -1.75189,-0.40545 -0.59845,-0.09654 -1.20171,-0.144777 -1.80982,-0.144777 H 252.8644 Z m -204.201503,0.03748 c -0.608098,0 -1.211373,0.04757 -1.809809,0.144778 -0.598445,0.08721 -1.182413,0.224155 -1.751894,0.408285 -0.579125,0.18413 -1.143805,0.412033 -1.693984,0.683389 -0.830091,0.416743 -1.587815,0.92998 -2.273117,1.540505 -0.694965,0.600834 -1.303068,1.28457 -1.824293,2.05015 -0.530876,0.794654 -0.931449,1.645952 -1.201709,2.556904 -0.270237,0.901255 -0.405451,1.846418 -0.405451,2.834886 v 8.941909 c 0,1.036931 0.135166,2.020371 0.405451,2.950707 0.260625,0.920634 0.656351,1.770048 1.187232,2.54532 1.042448,1.511784 2.417918,2.656118 4.12636,3.431394 0.820444,0.368212 1.669863,0.644027 2.548217,0.828171 0.878354,0.18413 1.776026,0.275041 2.692997,0.275041 h 2.417905 c 2.283174,0.0032 2.034056,0.0035 1.824291,0.0029 -0.02451,-7.69e-4 0.516698,-0.0017 1.187233,-0.0029 h 4.462267 c 0.501908,0 0.926632,0.02355 1.274104,0.07241 0.347453,0.04819 0.608075,0.108834 0.781835,0.176634 0.173703,0.05814 0.303968,0.144247 0.390891,0.260625 0.09644,0.116235 0.149726,0.212048 0.15924,0.289601 0.0197,0.06785 0.02883,0.166495 0.02883,0.292484 v 8.941916 c 0,0.0969 0.01441,0.24189 -0.01442,0.30406 -0.09913,0.21325 -0.105615,0.20224 -0.30983,0.33304 -0.230114,0.0619 -0.196671,0.0516 -0.515414,0.11292 -0.241694,0.0461 -0.538555,0.0779 -0.857126,0.10711 -0.308869,0.0289 -0.641903,0.0437 -0.999009,0.0437 h -5.652398 v 0.003 H 40.609924 c -6.05777,0.01 -5.781864,9.09922 0,9.12722 h 11.351121 c 0.726087,0.002 1.562902,0.002 1.537618,0.003 -0.209837,6.1e-4 -0.458883,2.5e-4 1.824281,-0.003 h 2.417913 c 0.916959,0 1.814645,-0.0909 2.692989,-0.27503 0.878359,-0.18413 1.727772,-0.46288 2.548217,-0.83107 1.708452,-0.77525 3.083913,-1.91672 4.126365,-3.4285 0.530876,-0.77527 0.926616,-1.62468 1.187237,-2.54532 0.270237,-0.93033 0.405451,-1.91377 0.405451,-2.9507 v -8.94192 c 0,-0.988477 -0.135118,-1.933636 -0.405451,-2.834891 -0.270236,-0.910751 -0.670843,-1.764931 -1.20172,-2.559591 -0.521233,-0.765586 -1.129327,-1.44932 -1.824282,-2.050149 -0.685312,-0.610535 -1.44303,-1.123797 -2.273118,-1.540515 -0.550159,-0.271294 -1.11485,-0.499269 -1.693983,-0.683379 -0.569486,-0.18413 -1.153454,-0.318239 -1.7519,-0.405451 -0.59844,-0.09701 -1.20171,-0.144777 -1.809805,-0.144777 h -4.178489 -2.299181 -3.353216 c -0.357112,0 -0.69014,-0.01441 -0.99902,-0.04372 -0.318575,-0.02883 -0.615441,-0.06376 -0.857121,-0.110084 -0.318719,-0.06102 -0.285276,-0.05045 -0.515409,-0.11292 -0.204167,-0.130649 -0.207867,-0.116858 -0.306946,-0.330106 -0.02883,-0.06208 -0.01442,-0.210029 -0.01442,-0.306947 v -8.941904 c 0,-0.125988 0.0096,-0.221706 0.02883,-0.289602 0.0096,-0.07755 0.0628,-0.176104 0.159239,-0.292435 0.08692,-0.116234 0.217189,-0.202436 0.390892,-0.260626 0.173799,-0.06785 0.434377,-0.125316 0.781831,-0.173799 0.347454,-0.04819 0.772201,-0.07529 1.274108,-0.07529 h 5.191982 v 0.0029 h 11.35112 c 5.78187,-0.02835 6.057771,-9.120561 0,-9.130128 h -10.83279 z m 42.5059,9.054839 h 11.582793 c 0.47301,0 0.89766,0.03363 1.27409,0.101386 0.38619,0.05795 0.64674,0.11585 0.78185,0.173799 0.13492,0.04819 0.21699,0.08668 0.24616,0.11585 0.01,0.0096 0.0245,0.04372 0.0437,0.101387 0.0288,0.04819 0.0627,0.139971 0.10138,0.275041 0.0389,0.125459 0.0723,0.270237 0.10139,0.434329 0.0388,0.164045 0.0723,0.381233 0.10139,0.651522 0.0289,0.260626 0.0437,0.540516 0.0437,0.839756 v 5.635027 c 0,0.299163 -0.0144,0.583971 -0.0437,0.854228 -0.0288,0.260626 -0.0627,0.47301 -0.10139,0.637054 -0.0289,0.164141 -0.0628,0.313722 -0.10139,0.44884 -0.0388,0.12546 -0.0723,0.217189 -0.10138,0.27509 -0.0196,0.04819 -0.0341,0.07731 -0.0437,0.08687 -0.0192,0.02883 -0.10134,0.06766 -0.24616,0.115801 -0.13516,0.04819 -0.39579,0.106192 -0.78185,0.173799 -0.37643,0.0577 -0.8011,0.08688 -1.27409,0.08688 H 89.590587 Z m 170.788093,0 h 11.64068 c 0.50191,0 0.92663,0.02451 1.27411,0.07241 0.3475,0.04819 0.60809,0.106192 0.78184,0.173799 0.1737,0.05785 0.30406,0.144776 0.39088,0.260626 0.0965,0.115802 0.14959,0.212384 0.15925,0.2896 0.0197,0.06761 0.0289,0.164045 0.0289,0.289601 v 4.097401 c 0,0.09654 -0.005,0.178507 -0.0144,0.246163 0,0.06761 -0.005,0.120702 -0.0144,0.159239 -0.01,0.03892 -0.0245,0.06746 -0.0437,0.08688 -0.01,0.0197 -0.0192,0.03364 -0.0288,0.04372 h -0.0437 c -0.0192,0 -0.0389,0.0048 -0.0579,0.01442 -0.19307,0.0676 -0.41025,0.130313 -0.65154,0.188262 -0.24131,0.04819 -0.52117,0.08668 -0.83974,0.115801 -0.30887,0.02883 -0.64189,0.04372 -0.99903,0.04372 h -11.58278 z m -85.50409,0.03219 c 2.13321,0.01249 4.68401,0.03172 7.0018,0.06949 0.0389,0.0096 0.0673,0.0197 0.0868,0.02883 0.0284,0.0096 0.0576,0.02451 0.0868,0.04372 0.0388,0.0197 0.0771,0.04819 0.1158,0.08688 0.21234,0.212384 0.49228,0.666009 0.83975,1.360974 l 4.92269,10.004628 c 0.26067,0.550213 0.48263,1.037637 0.66601,1.462328 0.19306,0.41506 0.33779,0.748037 0.43433,0.999013 0.0388,0.12546 0.0723,0.270188 0.10138,0.43433 0.0389,0.154434 0.0673,0.342648 0.0868,0.564662 0.0288,0.221992 0.0437,0.458498 0.0437,0.70945 0,0.752876 -0.32338,1.804982 -0.97007,3.156302 l -5.2412,10.554803 c -0.12545,0.2799 -0.26062,0.53569 -0.40544,0.76737 -0.14478,0.22198 -0.25578,0.37641 -0.33304,0.46329 -0.0674,0.0771 -0.11565,0.12517 -0.14478,0.14478 -0.01,0.01 -0.0336,0.0245 -0.0725,0.0437 -0.0389,0.01 -0.1014,0.024 -0.18827,0.0437 -0.0772,0.0192 -0.16885,0.038 -0.27505,0.0578 -0.0966,0.01 -0.22198,0.0245 -0.37642,0.0437 -0.14478,0.01 -6.22478,0.0197 -6.37922,0.0289 z" />
    <text
       xml:space="preserve"
       style="font-size:10.5833px;line-height:1.25;font-family:OCRABold;-inkscape-font-specification:OCRABold;stroke-width:0.264583"
       x="13.330068"
       y="50.186535"
       id="text547"><tspan
         sodipodi:role="line"
         id="tspan545"
         style="stroke-width:0.264583"
         x="13.330068"
         y="50.186535" /></text>
  </g>
</svg>
