<?xml version="1.0" encoding="UTF-8" standalone="no"?>
<!-- Created with Inkscape (http://www.inkscape.org/) -->

<svg
   width="14.5cm"
   height="3.51cm"
   viewBox="0 0 265.15991 64.186987"
   version="1.1"
   id="svg5"
   inkscape:version="1.2.2 (b0a8486, 2022-12-01)"
   sodipodi:docname="spider_sticker.svg"
   inkscape:export-filename="spider_sticker.pdf"
   inkscape:export-xdpi="96"
   inkscape:export-ydpi="96"
   xmlns:inkscape="http://www.inkscape.org/namespaces/inkscape"
   xmlns:sodipodi="http://sodipodi.sourceforge.net/DTD/sodipodi-0.dtd"
   xmlns="http://www.w3.org/2000/svg"
   xmlns:svg="http://www.w3.org/2000/svg">
  <sodipodi:namedview
     id="namedview7"
     pagecolor="#ffffff"
     bordercolor="#666666"
     borderopacity="1.0"
     inkscape:showpageshadow="2"
     inkscape:pageopacity="0"
     inkscape:pagecheckerboard="0"
     inkscape:deskcolor="#d1d1d1"
     inkscape:document-units="mm"
     showgrid="false"
     inkscape:zoom="1.4142136"
     inkscape:cx="444.77017"
     inkscape:cy="45.254834"
     inkscape:window-width="2145"
     inkscape:window-height="1322"
     inkscape:window-x="1799"
     inkscape:window-y="340"
     inkscape:window-maximized="0"
     inkscape:current-layer="layer1">
    <inkscape:grid
       type="xygrid"
       id="grid396"
       originx="-48.733218"
       originy="-98.411748" />
  </sodipodi:namedview>
  <defs
     id="defs2" />
  <g
     inkscape:label="Layer 1"
     inkscape:groupmode="layer"
     id="layer1"
     transform="translate(-27.355774,-54.495799)">
    <rect
       style="fill:#ffff00;fill-opacity:1;stroke:none;stroke-width:0.400922"
       id="rect14886"
       width="265.15991"
       height="64.186981"
       x="27.355772"
       y="54.4958" />
    <text
       xml:space="preserve"
       style="font-size:10.5833px;line-height:1.25;font-family:OCRABold;-inkscape-font-specification:OCRABold;stroke-width:0.264583"
       x="22.800579"
       y="51.224617"
       id="text400"><tspan
         sodipodi:role="line"
         id="tspan398"
         style="stroke-width:0.264583"
         x="22.800579"
         y="51.224617" /></text>
    <path
       id="path482-1"
       style="font-size:10.5833px;line-height:1.25;font-family:OCRABold;-inkscape-font-specification:OCRABold;stroke-width:1.48259"
       d="m 80.497919,61.932014 v 1.578152 43.175214 c 0,0.89767 0.188712,1.69401 0.565111,2.38897 0.376426,0.68531 0.907008,1.21587 1.592327,1.59232 0.694958,0.38608 1.491309,0.57929 2.388963,0.57929 1.360971,0 2.456619,-0.41997 3.286714,-1.25969 0.839746,-0.83976 1.259687,-1.93992 1.259687,-3.30089 V 91.153342 h 11.394829 c 2.04626,0 3.73507,-0.203165 5.06709,-0.60858 0.75287,-0.231652 1.46667,-0.579033 2.14232,-1.042337 0.67567,-0.472912 1.31782,-1.052542 1.92591,-1.737857 0.56949,-0.637042 1.05203,-1.288249 1.44775,-1.954263 0.39578,-0.666007 0.68599,-1.341717 0.8694,-2.027027 0.34745,-1.245147 0.52069,-2.798803 0.52069,-4.661692 v -5.403517 c 0,-1.998009 -0.19321,-3.634245 -0.57928,-4.908336 -0.1158,-0.366818 -0.26006,-0.724154 -0.43376,-1.071632 -0.16414,-0.357109 -0.36181,-0.699961 -0.59346,-1.028161 -0.23164,-0.337843 -0.48743,-0.665248 -0.76734,-0.983746 -0.27024,-0.318576 -0.57503,-0.632359 -0.91287,-0.941221 -1.18723,-1.119662 -2.40351,-1.882439 -3.64865,-2.287848 -0.40545,-0.12546 -0.83986,-0.231591 -1.30316,-0.318466 -0.45365,-0.08692 -0.92618,-0.149375 -1.41845,-0.188055 -0.48263,-0.03892 -0.99418,-0.05859 -1.53468,-0.05859 H 82.076071 Z m 47.243451,0 c -1.2548,0 -2.31142,0.377334 -3.17048,1.130221 -0.91696,0.801142 -1.37592,1.939381 -1.37592,3.41618 0,0.675656 0.11154,1.313298 0.33358,1.911737 0.22199,0.588786 0.56938,1.090343 1.04234,1.505387 0.42472,0.376429 0.9072,0.66122 1.44774,0.854281 0.55015,0.183408 1.1243,0.274996 1.72274,0.274996 h 7.12342 v 31.099994 h -7.12342 c -1.25479,0 -2.31143,0.38088 -3.17048,1.14345 -0.19306,0.16404 -0.3672,0.35281 -0.52164,0.56511 -0.15442,0.20268 -0.2842,0.41494 -0.39029,0.63693 -0.1062,0.22199 -0.19873,0.45875 -0.27594,0.7097 -0.0674,0.25092 -0.11546,0.50126 -0.14458,0.75222 -0.0289,0.24131 -0.0435,0.49253 -0.0435,0.75316 0,0.67565 0.1106,1.31236 0.33264,1.9108 0.222,0.58878 0.56938,1.09127 1.04233,1.50633 0.42473,0.37643 0.90816,0.66124 1.44869,0.85428 0.55016,0.19307 1.1243,0.28917 1.72274,0.28917 h 23.35381 c 0.59843,0 1.16805,-0.0962 1.70856,-0.28917 0.54051,-0.1834 1.02757,-0.46366 1.46192,-0.84011 0.24131,-0.21238 0.45352,-0.44909 0.63693,-0.70969 0.18341,-0.27024 0.32855,-0.55509 0.4347,-0.85428 0.10619,-0.29925 0.18329,-0.60308 0.23153,-0.91193 0.0578,-0.30887 0.0869,-0.62722 0.0869,-0.9554 0,-1.48645 -0.46346,-2.63015 -1.3901,-3.4313 -0.85904,-0.75288 -1.91569,-1.12927 -3.17048,-1.12927 h -7.13854 V 71.024816 h 7.13854 c 0.59845,0 1.16805,-0.09168 1.70856,-0.274996 0.54052,-0.183407 1.02758,-0.463654 1.46192,-0.840106 0.47292,-0.415058 0.82033,-0.9166 1.04234,-1.505387 0.23166,-0.598443 0.34776,-1.240603 0.34776,-1.925912 0,-1.486451 -0.46347,-2.630164 -1.3901,-3.4313 -0.85905,-0.743229 -1.91569,-1.115101 -3.17048,-1.115101 z m 43.16009,0 c -1.37062,0 -2.51885,0.35284 -3.44547,1.057456 -0.34745,0.270236 -0.6423,0.598606 -0.88358,0.984692 -0.24131,0.376426 -0.41452,0.776407 -0.52069,1.201096 -0.106,0.41506 -0.15971,0.849492 -0.15971,1.303157 -0.023,4.529384 0.0372,-0.414025 -0.003,4.546401 v 31.099994 c -0.006,1.76065 -0.004,2.71991 0.003,4.56057 0,0.67566 0.11156,1.31236 0.33359,1.9108 0.22201,0.58877 0.56933,1.09127 1.04233,1.50633 0.42472,0.37638 0.90725,0.66122 1.44775,0.85428 0.5502,0.19306 1.12428,0.28917 1.72273,0.28917 h 9.84503 c 2.62538,0 4.77865,-0.48252 6.45813,-1.44774 1.70846,-0.97488 3.15148,-2.64466 4.32906,-5.00945 l 5.38556,-10.786249 c 1.26445,-2.519231 1.89661,-4.932763 1.89661,-7.239654 0,-0.72392 -0.0383,-1.404161 -0.11529,-2.041203 -0.0772,-0.637048 -0.19334,-1.240197 -0.34776,-1.809678 -0.15445,-0.550206 -0.35761,-1.129758 -0.60858,-1.737857 -0.24131,-0.617745 -0.53513,-1.283462 -0.88263,-1.997732 l -5.21262,-10.439429 c -0.3668,-0.733576 -0.75769,-1.40928 -1.17275,-2.027028 -0.40544,-0.627389 -0.83437,-1.191537 -1.28804,-1.693442 -0.31852,-0.347454 -0.66136,-0.665865 -1.02816,-0.955396 -0.35711,-0.299259 -0.739,-0.564986 -1.1444,-0.796636 -0.39571,-0.231651 -0.81023,-0.433871 -1.24456,-0.607636 -0.6467,-0.250968 -1.34693,-0.435053 -2.0998,-0.550936 -0.74321,-0.115802 -1.54407,-0.17388 -2.40313,-0.17388 z m 37.6876,0 v 1.578152 46.143464 1.59233 h 1.57815 26.32206 c 0.59844,0 1.16804,-0.0962 1.70857,-0.28917 0.54052,-0.18341 1.02758,-0.46366 1.46191,-0.84011 0.24132,-0.21238 0.45352,-0.44908 0.63694,-0.70969 0.18339,-0.27023 0.32855,-0.55508 0.4347,-0.85428 0.10619,-0.29926 0.18328,-0.60307 0.23152,-0.91193 0.0578,-0.30887 0.0869,-0.62721 0.0869,-0.9554 0,-1.48645 -0.46348,-2.63016 -1.3901,-3.4313 -0.85904,-0.75287 -1.91567,-1.12927 -3.17048,-1.12927 H 217.68186 V 91.121212 h 7.13759 c 0.58879,0 1.15387,-0.09164 1.69439,-0.274995 0.55022,-0.183408 1.03723,-0.463655 1.46192,-0.840106 0.31857,-0.279894 0.5843,-0.608255 0.79663,-0.984691 0.21238,-0.376428 0.362,-0.761887 0.44888,-1.157627 0.0868,-0.405449 0.13041,-0.830811 0.13041,-1.274807 0,-1.486454 -0.45897,-2.630169 -1.37592,-3.431299 -0.85905,-0.752883 -1.91116,-1.129277 -3.15631,-1.129277 h -7.13759 V 71.024816 h 18.80741 c 0.59844,0 1.16804,-0.09168 1.70857,-0.274996 0.54052,-0.183407 1.02756,-0.463654 1.46191,-0.840106 0.47295,-0.415058 0.82033,-0.916599 1.04234,-1.505387 0.23165,-0.598438 0.34776,-1.240593 0.34776,-1.925912 0,-1.486441 -0.46347,-2.630161 -1.3901,-3.4313 -0.85903,-0.743225 -1.91567,-1.115101 -3.17048,-1.115101 h -26.32206 z m 42.69704,0 v 1.578152 43.175214 c 0,0.89767 0.18872,1.694 0.56512,2.38897 0.37641,0.68531 0.90702,1.21587 1.59232,1.59232 0.69497,0.38608 1.4913,0.57929 2.38897,0.57929 1.36096,0 2.4566,-0.41997 3.28671,-1.25969 0.83973,-0.83976 1.25969,-1.93992 1.25969,-3.30089 V 87.689913 l 14.8403,21.196377 c 0.48263,0.71427 1.05672,1.28386 1.72273,1.70856 0.66601,0.43432 1.39525,0.65111 2.18674,0.65111 1.24513,0 2.31176,-0.39537 3.19977,-1.18692 0.29925,-0.27022 0.55502,-0.57412 0.76734,-0.91193 0.21239,-0.34745 0.37104,-0.71483 0.47723,-1.10093 0.11585,-0.38606 0.17388,-0.78153 0.17388,-1.18692 0,-0.63704 -0.14962,-1.26469 -0.44888,-1.88244 -0.28961,-0.62739 -0.73308,-1.35117 -1.33151,-2.17161 l -11.598,-16.606509 h 2.41826 c 0.91698,0 1.8149,-0.09164 2.69326,-0.274996 0.87836,-0.183408 1.72728,-0.459203 2.54772,-0.825931 1.70846,-0.772174 3.08436,-1.911372 4.12682,-3.417124 0.53088,-0.772179 0.92632,-1.616582 1.18692,-2.533548 0.27024,-0.926616 0.40541,-1.906162 0.40541,-2.938954 v -4.097526 c 0,-0.984529 -0.13507,-1.925059 -0.40541,-2.822718 -0.27023,-0.907315 -0.67116,-1.757178 -1.20204,-2.548669 -0.52123,-0.762522 -1.12888,-1.442761 -1.82385,-2.041203 -0.68531,-0.608091 -1.44262,-1.119641 -2.27273,-1.534682 -0.55021,-0.270235 -1.11526,-0.497008 -1.69439,-0.6804 -0.56949,-0.183409 -1.15359,-0.318531 -1.75203,-0.405406 -0.59845,-0.09654 -1.20157,-0.14553 -1.80968,-0.14553 h -19.92251 z m -203.724309,0.0038 c -0.54281,0 -1.057184,0.0317 -1.543187,0.0945 -0.479692,0.0628 -0.939772,0.162539 -1.381592,0.299565 -0.441822,0.13702 -0.852633,0.311343 -1.231337,0.522586 -1.079306,0.616595 -1.994133,1.606575 -2.745228,2.971084 l -3.55982,6.483654 c -0.43551,0.793582 -0.741814,1.49552 -0.918541,2.106407 -0.183041,0.628022 -0.274996,1.364448 -0.274996,2.209413 0,0.673692 0.09509,1.353257 0.284446,2.038368 0.195663,0.679398 0.483136,1.367351 0.861841,2.063883 1.883587,3.443736 3.097865,7.100501 6.248348,9.484032 1.079306,0.633728 2.436328,0.950671 4.071065,0.950671 h 4.513326 c 0.01241,3.4e-5 0.02444,0.0019 0.03685,0.0019 h 1.351352 c -5.86e-4,2.3e-5 -0.01179,0.0028 -0.01229,0.0028 0.169758,-0.0051 0.334601,-9.15e-4 0.502741,-0.0028 h 0.945001 c 0.569275,0.01359 1.123852,0.04912 1.669817,0.09734 l 1.769043,3.243244 c 0.145168,0.279457 0.270701,0.525136 0.378,0.736156 0.100988,0.21672 0.174116,0.379264 0.218295,0.48762 0.06943,0.188209 0.103951,0.450695 0.103951,0.787186 0,0.615944 -0.233179,1.365107 -0.700246,2.249103 l -1.824798,3.288604 c -0.734111,0.0279 -1.496522,0.0454 -2.311473,0.0444 h -2.749008 v 0.004 h -8.535007 c -6.057756,0.01 -5.781852,9.09882 0,9.12682 h 7.952896 c 0.0058,4e-5 0.01116,9.5e-4 0.01701,9.5e-4 h 1.774712 c 0.461379,6.2e-4 1.042188,0.001 1.025326,0.002 -0.139951,4.1e-4 -0.447206,-9.1e-4 -0.719145,-0.002 h 4.5086 c 0.54281,0 1.057184,-0.0308 1.543188,-0.0936 0.479691,-0.0627 0.940715,-0.16268 1.382536,-0.29956 0.441823,-0.13688 0.852633,-0.31062 1.231337,-0.52164 1.079307,-0.61595 1.994132,-1.60613 2.745229,-2.9692 l 3.559819,-6.47609 c 0.43551,-0.79274 0.741813,-1.494272 0.918542,-2.104514 0.18304,-0.627357 0.27405,-1.362506 0.27405,-2.206577 0,-0.672979 -0.09415,-1.352092 -0.2835,-2.036478 -0.195665,-0.67868 -0.483137,-1.365253 -0.861842,-2.061048 C 65.913513,89.018295 64.69924,85.364818 61.548754,82.983807 60.469447,82.350748 59.112428,82.03408 57.477689,82.03408 h -4.892272 c -1.660116,-0.0059 -2.989026,0.01767 -4.067285,-0.02363 L 46.70184,78.678381 c -0.14517,-0.279753 -0.270702,-0.524913 -0.378001,-0.736156 -0.100988,-0.21695 -0.174116,-0.380094 -0.218295,-0.488566 -0.06943,-0.188408 -0.10395,-0.451282 -0.10395,-0.788131 0,-0.616595 0.233177,-1.367004 0.700246,-2.251938 l 1.830467,-3.301834 c 1.127203,-0.01254 2.478742,0.0066 4.158005,-0.01417 h 0.353431 v 0.0028 h 9.051026 c 5.781858,-0.02835 6.057759,-9.121035 0,-9.130602 H 54.61528 c -0.05034,-0.0057 -0.100862,-0.01406 -0.1512,-0.01701 -0.100988,-0.01119 -0.205496,-0.01701 -0.312796,-0.01701 z m 42.02893,9.089022 H 101.1736 c 0.47301,0 0.89743,0.03336 1.27386,0.101115 0.38619,0.05795 0.64641,0.115931 0.78152,0.17388 0.13492,0.04819 0.21747,0.08706 0.24664,0.116235 0.01,0.0096 0.0243,0.04345 0.0435,0.101115 0.0288,0.04819 0.0624,0.139926 0.10112,0.274996 0.0389,0.125459 0.073,0.27061 0.10206,0.4347 0.0388,0.164045 0.072,0.380819 0.10111,0.651106 0.0289,0.260626 0.0435,0.540868 0.0435,0.840106 v 5.635043 c 0,0.299163 -0.0142,0.584024 -0.0435,0.854281 -0.0288,0.260626 -0.0624,0.472887 -0.10111,0.636931 -0.0289,0.164141 -0.0635,0.313757 -0.10206,0.448875 -0.0388,0.12546 -0.072,0.217095 -0.10112,0.274996 -0.0196,0.04819 -0.0339,0.07738 -0.0435,0.08694 -0.0192,0.02883 -0.10182,0.06715 -0.24664,0.11529 -0.13516,0.04819 -0.39546,0.106273 -0.78152,0.17388 -0.37643,0.0577 -0.80087,0.08694 -1.27386,0.08694 H 89.590721 Z m 170.788189,0 h 11.64052 c 0.50191,0 0.92638,0.02487 1.27386,0.07277 0.3475,0.04819 0.60871,0.106273 0.78246,0.17388 0.1737,0.05785 0.30347,0.144027 0.39029,0.259875 0.0965,0.115802 0.15005,0.2129 0.15971,0.290116 0.0197,0.06761 0.0284,0.163614 0.0284,0.28917 v 4.097526 c 0,0.09654 -0.005,0.178989 -0.0142,0.246645 0,0.06761 -0.005,0.120223 -0.0142,0.15876 -0.01,0.03892 -0.0243,0.06752 -0.0435,0.08694 -0.01,0.0197 -0.0197,0.03339 -0.0293,0.04347 h -0.0435 c -0.0192,0 -0.0386,0.0055 -0.0576,0.01512 -0.19307,0.0676 -0.41077,0.130107 -0.65206,0.188056 -0.24131,0.04819 -0.52153,0.08617 -0.8401,0.11529 -0.30887,0.02883 -0.64173,0.04442 -0.99887,0.04442 h -11.58288 z m -85.50466,0.03213 c 2.13321,0.01249 4.68467,0.03216 7.00246,0.06993 0.0389,0.0096 0.0674,0.01922 0.0869,0.02835 0.0284,0.0096 0.0568,0.02426 0.086,0.04347 0.0388,0.0197 0.0775,0.04825 0.11624,0.08694 0.21234,0.212384 0.49263,0.665839 0.8401,1.360802 l 4.92252,10.004728 c 0.26067,0.550213 0.4819,1.038173 0.66528,1.462862 0.19306,0.41506 0.33816,0.747892 0.4347,0.998866 0.0388,0.12546 0.072,0.270559 0.10111,0.434701 0.0389,0.154434 0.0674,0.342152 0.0869,0.564166 0.0288,0.22199 0.0435,0.458744 0.0435,0.709696 0,0.752874 -0.32288,1.804986 -0.96957,3.156304 l -5.24098,10.554719 c -0.12545,0.2799 -0.26058,0.53566 -0.4054,0.76734 -0.14478,0.22198 -0.25633,0.37617 -0.33359,0.46305 -0.0674,0.0771 -0.11545,0.12498 -0.14458,0.14459 -0.01,0.01 -0.0339,0.0252 -0.0728,0.0444 -0.0389,0.01 -0.10118,0.0238 -0.18805,0.0435 -0.0772,0.0192 -0.1688,0.0379 -0.275,0.0576 -0.0966,0.01 -0.22167,0.0243 -0.37611,0.0435 -0.14478,0.01 -6.22526,0.0201 -6.3797,0.0293 z"
       sodipodi:nodetypes="ccsccscscscccccssccccccccsccscscccsccscccccscccsscccscscsccscccscsssccccccccccsscccscccccccccccsscccccscccscscsccsccccscsccscccscsccccsccscscccscccscccsscccssccccccsccsccccccscccscsccccccccsccccccccscccscsccccscccscccccscccccccccsscscccccccsscccccccscccsccccssccccscccscccccccccccccsccccccccccc" />
    <text
       xml:space="preserve"
       style="font-size:10.5833px;line-height:1.25;font-family:OCRABold;-inkscape-font-specification:OCRABold;stroke-width:0.264583"
       x="13.330068"
       y="50.186535"
       id="text547"><tspan
         sodipodi:role="line"
         id="tspan545"
         style="stroke-width:0.264583"
         x="13.330068"
         y="50.186535" /></text>
    <text
       xml:space="preserve"
       style="font-size:19.3536px;line-height:1.25;font-family:OCRABold;-inkscape-font-specification:OCRABold;stroke-width:0.483841"
       x="20.340084"
       y="148.36089"
       id="text294"><tspan
         sodipodi:role="line"
         id="tspan292"
         style="stroke-width:0.483841"
         x="20.340084"
         y="148.36089" /></text>
    <g
       id="g554">
      <g
         aria-label="C"
         id="text383-8-3"
         style="font-size:59.2496px;line-height:1.25;font-family:OCRABold;-inkscape-font-specification:OCRABold;stroke-width:0.617184"
         transform="matrix(0.65450834,0,0,0.59203303,29.794454,-23.192405)" />
      <g
         aria-label="C"
         id="text383-8-3-1"
         style="font-size:59.2496px;line-height:1.25;font-family:OCRABold;-inkscape-font-specification:OCRABold;stroke-width:0.617184"
         transform="matrix(0.65450834,0,0,0.59203303,33.942743,-23.149639)" />
      <g
         id="g543">
        <g
           aria-label="C"
           id="text383-8-3-3"
           style="font-size:59.2496px;line-height:1.25;font-family:OCRABold;-inkscape-font-specification:OCRABold;stroke-width:0.617184"
           transform="matrix(-0.65450834,0,0,-0.59140627,75.055891,196.26542)" />
        <g
           aria-label="C"
           id="text383-8-3-1-8"
           style="font-size:59.2496px;line-height:1.25;font-family:OCRABold;-inkscape-font-specification:OCRABold;stroke-width:0.617184"
           transform="matrix(-0.65450834,0,0,-0.59140627,108.32775,199.21313)" />
      </g>
    </g>
  </g>
</svg>
